<svg id="Socials" xmlns="http://www.w3.org/2000/svg" viewBox="0 0 200 200"><title>facebook</title><path d="M22.73,0H177.27q12.07,0,19.18,10.65A25.88,25.88,0,0,1,200,24.15v151.7q0,12.78-9.94,20.17a21.34,21.34,0,0,1-12.78,4H22.73q-12.08,0-19.18-10.65A25.87,25.87,0,0,1,0,175.85V24.15Q0,11.36,9.94,4A21.36,21.36,0,0,1,22.73,0Zm86.36,32.1-6,2.27A26.92,26.92,0,0,0,89.49,45.88a35.21,35.21,0,0,0-4.55,18V82.53H63.78V107H84.94v62.78h25.28V107h21.16q.14-1,3.13-24.43H110.23V68.75q0-5.68.57-7.1a7.21,7.21,0,0,1,1-2.41,7.73,7.73,0,0,1,4.55-3.41q2.13-.85,7.81-.85h11.22V33.1a163.59,163.59,0,0,0-18.32-1h-8Z" fill="#939598"/></svg>