<svg id="Socials" xmlns="http://www.w3.org/2000/svg" viewBox="0 0 200 198.98"><title>instagram</title><path d="M100.39,49.45c-27.83-.23-51,22.64-51.17,50.52a50.81,50.81,0,1,0,51.17-50.52ZM100,133.19A32.78,32.78,0,1,1,132.77,100,32.71,32.71,0,0,1,100,133.19Zm64.76-86a12.29,12.29,0,0,1-11.4,12.34c-6.46.32-12.54-5.48-12.55-12A12.29,12.29,0,0,1,152.6,35.64,12,12,0,0,1,164.73,47.19Zm32.05.84c-3.19-26.11-21.47-42.89-47.6-45.27a541.23,541.23,0,0,0-98.34,0C24.85,5.12,6.3,21.9,3.14,48a437.64,437.64,0,0,0,0,104.65c3,25,19.59,40.3,44.22,44.84,17.22,3.17,34.64,1.39,52.47,2,16.34-.7,33.22.79,50.07-1.5,25.23-3.43,43.53-19.38,46.76-44.65A424.31,424.31,0,0,0,196.78,48Zm-17.06,98.46C178,168.26,165,179.53,143,180.51c-14.47.64-29,.12-43.5.13-14,0-28.07.48-42.07-.1-22.1-.93-35.29-12.12-37-33.73a544.25,544.25,0,0,1,.25-94.74c1.75-18.45,13-29.58,31.5-31.21a548.05,548.05,0,0,1,95.44,0c19,1.65,30.07,12.57,31.88,31.62A542.29,542.29,0,0,1,179.72,146.48Z" transform="translate(0 -0.51)" fill="#939598"/></svg>