<svg id="Socials" xmlns="http://www.w3.org/2000/svg" viewBox="0 0 200 200"><title>twitter</title><path d="M22.73,0H177.27q12.07,0,19.18,10.65A25.88,25.88,0,0,1,200,24.15v151.7q0,12.78-9.94,20.17a21.34,21.34,0,0,1-12.78,4H22.73q-12.07,0-19.18-10.65A25.87,25.87,0,0,1,0,175.85V24.15Q0,11.36,9.94,4A21.36,21.36,0,0,1,22.73,0Zm78,78.41V79a29.19,29.19,0,0,0,.71,5.82h-.14a89.47,89.47,0,0,1-11.65-1.42,89.43,89.43,0,0,1-13.07-4,79.09,79.09,0,0,1-13.07-6.82A78.75,78.75,0,0,1,51.7,63.21q-3.41-3.41-6.25-6.68A27.7,27.7,0,0,0,41.9,69.6v1.14q0,8.81,6.39,16.9a22.23,22.23,0,0,0,5.4,4.83v.14a27.24,27.24,0,0,1-12.07-3.27v.71q0,10.65,8.24,19,5.11,4.69,9.52,6a16,16,0,0,0,3.69,1.14q0,.29-3,.71a20,20,0,0,1-2.84.28H55.68a28,28,0,0,1-4.55-.43,26.88,26.88,0,0,0,11.08,14.35,26.06,26.06,0,0,0,14.06,4.4,41.52,41.52,0,0,1-7.67,5.11A54.23,54.23,0,0,1,43.75,147H41.9a55.38,55.38,0,0,1-5.54-.28,69.75,69.75,0,0,0,16.48,8A76.63,76.63,0,0,0,78,158.95a78.28,78.28,0,0,0,38.07-9.52,79.66,79.66,0,0,0,12.07-8.66,75.76,75.76,0,0,0,8.52-8.66,85.53,85.53,0,0,0,9.09-13.64,80.27,80.27,0,0,0,4.83-10.94A77.15,77.15,0,0,0,155,83V78.27a55.19,55.19,0,0,0,13.49-13.92h-.14a66.55,66.55,0,0,1-10.65,3.41q-4.12.71-4.55.71v-.14q1.7-.71,5.68-4.4a28.84,28.84,0,0,0,6-10.37,52.9,52.9,0,0,1-11.08,5,35.47,35.47,0,0,1-6.11,1.56q-3.84-3.69-5.82-4.55a26.1,26.1,0,0,0-13.78-4h-.14a26.84,26.84,0,0,0-19,7.81Q100.71,67.61,100.71,78.41Z" fill="#939598"/></svg>